# Blender v2.77 (sub 0) OBJ File: 'Semi Circle.blend'
# www.blender.org
mtllib Semi Circle.mtl
o Plane
v 0.980785 0.036232 -0.195091
v 0.923879 0.036232 -0.382684
v 1.000000 0.036232 -0.000001
v 0.707106 0.036232 -0.707108
v 0.831469 0.036232 -0.555571
v 0.555569 0.036232 -0.831470
v 0.980785 0.036232 0.195089
v 0.923880 0.036232 0.382683
v 0.831470 0.036232 0.555570
v 0.555571 0.000000 0.831469
v 0.707107 0.000000 0.707106
v 0.831470 0.000000 0.555570
v 0.923880 0.000000 0.382683
v 0.980785 0.000000 0.195089
v 1.000000 0.000000 -0.000001
v 0.980785 0.000000 -0.195091
v 0.923879 0.000000 -0.382684
v 0.831469 0.000000 -0.555571
v 0.707106 0.000000 -0.707108
v 0.555569 0.000000 -0.831470
v 0.707107 0.036232 0.707106
v 0.555571 0.036232 0.831469
vn 0.0000 -1.0000 0.0000
vn 0.0000 1.0000 -0.0000
vn 0.9952 0.0000 0.0980
vn -1.0000 0.0000 0.0000
vn 0.7730 0.0000 0.6344
vn 0.7730 0.0000 -0.6344
vn 0.9952 0.0000 -0.0980
vn 0.8819 0.0000 0.4714
vn 0.6344 0.0000 -0.7730
vn 0.9569 0.0000 -0.2903
vn 0.9569 0.0000 0.2903
vn 0.6344 0.0000 0.7730
vn 0.8819 0.0000 -0.4714
usemtl None
s off
f 11//1 10//1 20//1 19//1 18//1 17//1 16//1 15//1 14//1 13//1 12//1
f 21//2 9//2 8//2 7//2 3//2 1//2 2//2 5//2 4//2 6//2 22//2
f 14//3 15//3 3//3 7//3
f 20//4 10//4 22//4 6//4
f 11//5 12//5 9//5 21//5
f 18//6 19//6 4//6 5//6
f 15//7 16//7 1//7 3//7
f 12//8 13//8 8//8 9//8
f 19//9 20//9 6//9 4//9
f 16//10 17//10 2//10 1//10
f 13//11 14//11 7//11 8//11
f 10//12 11//12 21//12 22//12
f 17//13 18//13 5//13 2//13
